<mxfile host="app.diagrams.net" modified="2023-07-06T18:47:49.534Z" agent="Mozilla/5.0 (Windows NT 10.0; Win64; x64) AppleWebKit/537.36 (KHTML, like Gecko) Chrome/114.0.0.0 Safari/537.36" etag="OOzU9xCRNi98sZ5i13md" version="21.6.1" type="github">
  <diagram name="Page-1" id="efa7a0a1-bf9b-a30e-e6df-94a7791c09e9">
    <mxGraphModel dx="1434" dy="756" grid="1" gridSize="10" guides="1" tooltips="1" connect="1" arrows="1" fold="1" page="1" pageScale="1" pageWidth="826" pageHeight="1169" background="none" math="0" shadow="0">
      <root>
        <mxCell id="0" />
        <mxCell id="1" parent="0" />
        <mxCell id="X5YTY3rwjWzO3hyyinGN-114" value="App&lt;br&gt;" style="whiteSpace=wrap;html=1;aspect=fixed;" vertex="1" parent="1">
          <mxGeometry x="160" y="140" width="460" height="460" as="geometry" />
        </mxCell>
        <mxCell id="X5YTY3rwjWzO3hyyinGN-115" value="Users" style="whiteSpace=wrap;html=1;aspect=fixed;" vertex="1" parent="1">
          <mxGeometry x="220" y="210" width="110" height="110" as="geometry" />
        </mxCell>
        <mxCell id="X5YTY3rwjWzO3hyyinGN-116" value="Intervaals" style="whiteSpace=wrap;html=1;aspect=fixed;" vertex="1" parent="1">
          <mxGeometry x="400" y="180" width="160" height="160" as="geometry" />
        </mxCell>
        <mxCell id="X5YTY3rwjWzO3hyyinGN-118" value="ID&lt;br&gt;User&lt;br&gt;From&lt;br&gt;To&lt;br&gt;DayID" style="whiteSpace=wrap;html=1;aspect=fixed;" vertex="1" parent="1">
          <mxGeometry x="690" y="100" width="330" height="330" as="geometry" />
        </mxCell>
        <mxCell id="X5YTY3rwjWzO3hyyinGN-122" style="edgeStyle=orthogonalEdgeStyle;rounded=0;orthogonalLoop=1;jettySize=auto;html=1;" edge="1" parent="1" source="X5YTY3rwjWzO3hyyinGN-120" target="X5YTY3rwjWzO3hyyinGN-121">
          <mxGeometry relative="1" as="geometry" />
        </mxCell>
        <mxCell id="X5YTY3rwjWzO3hyyinGN-120" value="Days" style="whiteSpace=wrap;html=1;aspect=fixed;" vertex="1" parent="1">
          <mxGeometry x="425" y="380" width="110" height="110" as="geometry" />
        </mxCell>
        <mxCell id="X5YTY3rwjWzO3hyyinGN-124" style="edgeStyle=orthogonalEdgeStyle;rounded=0;orthogonalLoop=1;jettySize=auto;html=1;entryX=1;entryY=0.5;entryDx=0;entryDy=0;" edge="1" parent="1" source="X5YTY3rwjWzO3hyyinGN-121" target="X5YTY3rwjWzO3hyyinGN-118">
          <mxGeometry relative="1" as="geometry">
            <Array as="points">
              <mxPoint x="810" y="440" />
              <mxPoint x="890" y="440" />
              <mxPoint x="890" y="540" />
              <mxPoint x="1110" y="540" />
              <mxPoint x="1110" y="265" />
            </Array>
          </mxGeometry>
        </mxCell>
        <mxCell id="X5YTY3rwjWzO3hyyinGN-121" value="Date&lt;br&gt;id&lt;br&gt;active" style="rounded=1;whiteSpace=wrap;html=1;" vertex="1" parent="1">
          <mxGeometry x="750" y="460" width="120" height="210" as="geometry" />
        </mxCell>
        <mxCell id="X5YTY3rwjWzO3hyyinGN-123" value="Appointments" style="whiteSpace=wrap;html=1;aspect=fixed;" vertex="1" parent="1">
          <mxGeometry x="220" y="420" width="120" height="120" as="geometry" />
        </mxCell>
        <mxCell id="X5YTY3rwjWzO3hyyinGN-128" value="" style="shape=flexArrow;endArrow=classic;html=1;rounded=0;" edge="1" parent="1">
          <mxGeometry width="50" height="50" relative="1" as="geometry">
            <mxPoint x="360" y="480" as="sourcePoint" />
            <mxPoint x="410" y="430" as="targetPoint" />
          </mxGeometry>
        </mxCell>
        <mxCell id="X5YTY3rwjWzO3hyyinGN-129" value="" style="shape=flexArrow;endArrow=classic;html=1;rounded=0;endWidth=20;endSize=6.97;entryX=0.5;entryY=1;entryDx=0;entryDy=0;" edge="1" parent="1" target="X5YTY3rwjWzO3hyyinGN-116">
          <mxGeometry width="50" height="50" relative="1" as="geometry">
            <mxPoint x="510" y="380" as="sourcePoint" />
            <mxPoint x="460" y="330" as="targetPoint" />
            <Array as="points" />
          </mxGeometry>
        </mxCell>
        <mxCell id="X5YTY3rwjWzO3hyyinGN-130" value="" style="shape=flexArrow;endArrow=classic;html=1;rounded=0;" edge="1" parent="1">
          <mxGeometry width="50" height="50" relative="1" as="geometry">
            <mxPoint x="260" y="340" as="sourcePoint" />
            <mxPoint x="290" y="390" as="targetPoint" />
          </mxGeometry>
        </mxCell>
      </root>
    </mxGraphModel>
  </diagram>
</mxfile>
